# xmcd
#
# Track frame offsets:
#	150
#	21879
#	35187
#	47893
#	68710
#	98590
#	119271
#	145947
#	165434
#	184689
#
# Disc length: 2733 seconds
# Revision: 1
# Processed by: cddbd v1.5.2PL0 Copyright (c) Steve Scherf et al.
# Submitted via: dBpowerAMP V12.0
#
DISCID=840aab0a
DTITLE=Wolf Mail - Above the Influence
DYEAR=2013
DGENRE=Blues
TTITLE0=You Move Me
TTITLE1=Rusky Groove
TTITLE2=Good News
TTITLE3=Damn Right
TTITLE4=Undone
TTITLE5=Long Way
TTITLE6=Still Don't Know
TTITLE7=Ever Needed
TTITLE8=Mandy
TTITLE9=Run
EXTD=
EXTT0=
EXTT1=
EXTT2=
EXTT3=
EXTT4=
EXTT5=
EXTT6=
EXTT7=
EXTT8=
EXTT9=
PLAYORDER=
